<mxfile host="app.diagrams.net" modified="2021-06-21T09:13:43.543Z" agent="5.0 (Windows NT 10.0; Win64; x64) AppleWebKit/537.36 (KHTML, like Gecko) Chrome/91.0.4472.106 Safari/537.36" etag="yb2ocZrhvLSOBEd6TDPv" version="14.6.11" type="github">
  <diagram name="Page-1" id="13e1069c-82ec-6db2-03f1-153e76fe0fe0">
    <mxGraphModel dx="409" dy="191" grid="1" gridSize="10" guides="1" tooltips="1" connect="1" arrows="1" fold="1" page="1" pageScale="1" pageWidth="1100" pageHeight="850" background="none" math="0" shadow="0">
      <root>
        <mxCell id="0" />
        <mxCell id="1" parent="0" />
        <mxCell id="7baba1c4bc27f4b0-2" value="StartAllTest" style="shape=umlLifeline;perimeter=lifelinePerimeter;whiteSpace=wrap;html=1;container=1;collapsible=0;recursiveResize=0;outlineConnect=0;rounded=1;shadow=0;comic=0;labelBackgroundColor=none;strokeWidth=1;fontFamily=Verdana;fontSize=12;align=center;" parent="1" vertex="1">
          <mxGeometry x="240" y="80" width="100" height="680" as="geometry" />
        </mxCell>
        <mxCell id="7baba1c4bc27f4b0-10" value="" style="html=1;points=[];perimeter=orthogonalPerimeter;rounded=0;shadow=0;comic=0;labelBackgroundColor=none;strokeWidth=1;fontFamily=Verdana;fontSize=12;align=center;" parent="7baba1c4bc27f4b0-2" vertex="1">
          <mxGeometry x="45" y="100" width="10" height="560" as="geometry" />
        </mxCell>
        <mxCell id="oMLnvu2sPfIuHbvhSCbc-16" style="edgeStyle=orthogonalEdgeStyle;orthogonalLoop=1;jettySize=auto;html=1;startArrow=classicThin;startFill=1;endArrow=none;endFill=0;exitX=0.167;exitY=0.018;exitDx=0;exitDy=0;exitPerimeter=0;strokeColor=none;curved=1;" parent="7baba1c4bc27f4b0-2" source="7baba1c4bc27f4b0-10" target="7baba1c4bc27f4b0-2" edge="1">
          <mxGeometry relative="1" as="geometry">
            <mxPoint x="40" y="590" as="targetPoint" />
            <Array as="points">
              <mxPoint x="8" y="108" />
              <mxPoint x="8" y="310" />
              <mxPoint x="-30" y="310" />
              <mxPoint x="-30" y="540" />
            </Array>
          </mxGeometry>
        </mxCell>
        <mxCell id="7baba1c4bc27f4b0-3" value="StartSingleTest" style="shape=umlLifeline;perimeter=lifelinePerimeter;whiteSpace=wrap;html=1;container=1;collapsible=0;recursiveResize=0;outlineConnect=0;rounded=1;shadow=0;comic=0;labelBackgroundColor=none;strokeWidth=1;fontFamily=Verdana;fontSize=12;align=center;" parent="1" vertex="1">
          <mxGeometry x="400" y="80" width="100" height="680" as="geometry" />
        </mxCell>
        <mxCell id="7baba1c4bc27f4b0-13" value="" style="html=1;points=[];perimeter=orthogonalPerimeter;rounded=0;shadow=0;comic=0;labelBackgroundColor=none;strokeWidth=1;fontFamily=Verdana;fontSize=12;align=center;" parent="7baba1c4bc27f4b0-3" vertex="1">
          <mxGeometry x="45" y="120" width="10" height="560" as="geometry" />
        </mxCell>
        <mxCell id="7baba1c4bc27f4b0-4" value="TestCaseXX" style="shape=umlLifeline;perimeter=lifelinePerimeter;whiteSpace=wrap;html=1;container=1;collapsible=0;recursiveResize=0;outlineConnect=0;rounded=1;shadow=0;comic=0;labelBackgroundColor=none;strokeWidth=1;fontFamily=Verdana;fontSize=12;align=center;size=40;" parent="1" vertex="1">
          <mxGeometry x="850" y="80" width="100" height="580" as="geometry" />
        </mxCell>
        <mxCell id="7baba1c4bc27f4b0-5" value="Init_LSG_states()" style="shape=umlLifeline;perimeter=lifelinePerimeter;whiteSpace=wrap;html=1;container=1;collapsible=0;recursiveResize=0;outlineConnect=0;rounded=1;shadow=0;comic=0;labelBackgroundColor=none;strokeWidth=1;fontFamily=Verdana;fontSize=12;align=center;" parent="1" vertex="1">
          <mxGeometry x="690" y="80" width="120" height="680" as="geometry" />
        </mxCell>
        <mxCell id="0U7owIf70crT0n3WG6go-4" value="" style="html=1;points=[];perimeter=orthogonalPerimeter;rounded=0;shadow=0;comic=0;labelBackgroundColor=none;strokeWidth=1;fontFamily=Verdana;fontSize=12;align=center;" vertex="1" parent="7baba1c4bc27f4b0-5">
          <mxGeometry x="55" y="240" width="10" height="260" as="geometry" />
        </mxCell>
        <mxCell id="0U7owIf70crT0n3WG6go-24" value="" style="html=1;points=[];perimeter=orthogonalPerimeter;rounded=0;shadow=0;comic=0;labelBackgroundColor=none;strokeWidth=1;fontFamily=Verdana;fontSize=12;align=center;" vertex="1" parent="7baba1c4bc27f4b0-5">
          <mxGeometry x="55" y="70" width="10" height="20" as="geometry" />
        </mxCell>
        <mxCell id="7baba1c4bc27f4b0-8" value="App" style="shape=umlLifeline;perimeter=lifelinePerimeter;whiteSpace=wrap;html=1;container=1;collapsible=0;recursiveResize=0;outlineConnect=0;rounded=1;shadow=0;comic=0;labelBackgroundColor=none;strokeWidth=1;fontFamily=Verdana;fontSize=12;align=center;" parent="1" vertex="1">
          <mxGeometry x="100" y="80" width="100" height="680" as="geometry" />
        </mxCell>
        <mxCell id="7baba1c4bc27f4b0-9" value="" style="html=1;points=[];perimeter=orthogonalPerimeter;rounded=0;shadow=0;comic=0;labelBackgroundColor=none;strokeWidth=1;fontFamily=Verdana;fontSize=12;align=center;" parent="7baba1c4bc27f4b0-8" vertex="1">
          <mxGeometry x="45" y="60" width="10" height="610" as="geometry" />
        </mxCell>
        <mxCell id="7baba1c4bc27f4b0-19" value="" style="html=1;points=[];perimeter=orthogonalPerimeter;rounded=0;shadow=0;comic=0;labelBackgroundColor=none;strokeWidth=1;fontFamily=Verdana;fontSize=12;align=center;" parent="1" vertex="1">
          <mxGeometry x="897.5" y="620" width="10" height="120" as="geometry" />
        </mxCell>
        <mxCell id="7baba1c4bc27f4b0-20" value="Indication &lt;br&gt;callback pointers" style="html=1;verticalAlign=bottom;endArrow=block;entryX=0;entryY=0;labelBackgroundColor=none;fontFamily=Verdana;fontSize=12;edgeStyle=elbowEdgeStyle;elbow=vertical;" parent="1" target="7baba1c4bc27f4b0-19" edge="1">
          <mxGeometry x="-0.68" relative="1" as="geometry">
            <mxPoint x="460" y="620" as="sourcePoint" />
            <mxPoint as="offset" />
          </mxGeometry>
        </mxCell>
        <mxCell id="7baba1c4bc27f4b0-11" value="" style="html=1;verticalAlign=bottom;endArrow=block;labelBackgroundColor=none;fontFamily=Verdana;fontSize=12;edgeStyle=elbowEdgeStyle;elbow=vertical;" parent="1" source="7baba1c4bc27f4b0-9" edge="1">
          <mxGeometry relative="1" as="geometry">
            <mxPoint x="220" y="190" as="sourcePoint" />
            <mxPoint x="290" y="180" as="targetPoint" />
            <Array as="points">
              <mxPoint x="180" y="180" />
              <mxPoint x="250" y="250" />
            </Array>
          </mxGeometry>
        </mxCell>
        <mxCell id="7baba1c4bc27f4b0-14" value="Test case number" style="html=1;verticalAlign=bottom;endArrow=block;entryX=0;entryY=0;labelBackgroundColor=none;fontFamily=Verdana;fontSize=12;edgeStyle=elbowEdgeStyle;elbow=vertical;" parent="1" source="7baba1c4bc27f4b0-10" target="7baba1c4bc27f4b0-13" edge="1">
          <mxGeometry relative="1" as="geometry">
            <mxPoint x="370" y="200" as="sourcePoint" />
          </mxGeometry>
        </mxCell>
        <mxCell id="7baba1c4bc27f4b0-40" value="&lt;font style=&quot;font-size: 18px&quot;&gt;ASG&lt;/font&gt;" style="shape=note;whiteSpace=wrap;html=1;size=14;verticalAlign=top;align=left;spacingTop=-6;rounded=0;shadow=0;comic=0;labelBackgroundColor=none;strokeWidth=1;fontFamily=Verdana;fontSize=12;strokeColor=none;fillColor=none;" parent="1" vertex="1">
          <mxGeometry x="70" y="45" width="50" height="20" as="geometry" />
        </mxCell>
        <mxCell id="oMLnvu2sPfIuHbvhSCbc-2" value="Test execution started manually in debugger" style="shape=callout;whiteSpace=wrap;html=1;perimeter=calloutPerimeter;fillColor=#fff2cc;position2=1;base=20;size=10;position=0.92;strokeColor=#d6b656;" parent="1" vertex="1">
          <mxGeometry x="20" y="140" width="120" height="40" as="geometry" />
        </mxCell>
        <mxCell id="oMLnvu2sPfIuHbvhSCbc-3" value="If Test case exists in TestCaseTable" style="shape=callout;whiteSpace=wrap;html=1;perimeter=calloutPerimeter;fillColor=#fff2cc;position2=0;base=10;size=10;position=0;strokeColor=#d6b656;" parent="1" vertex="1">
          <mxGeometry x="460" y="200" width="100" height="40" as="geometry" />
        </mxCell>
        <mxCell id="oMLnvu2sPfIuHbvhSCbc-4" value="Set global indication function pointers" style="shape=callout;whiteSpace=wrap;html=1;perimeter=calloutPerimeter;fillColor=#fff2cc;position2=0;base=10;size=10;position=0;strokeColor=#d6b656;" parent="1" vertex="1">
          <mxGeometry x="1050" y="630" width="120" height="40" as="geometry" />
        </mxCell>
        <mxCell id="oMLnvu2sPfIuHbvhSCbc-6" value="BAP_Init" style="shape=callout;whiteSpace=wrap;html=1;perimeter=calloutPerimeter;fillColor=#fff2cc;position2=0;base=10;size=10;position=0;strokeColor=#d6b656;" parent="1" vertex="1">
          <mxGeometry x="760" y="390" width="120" height="30" as="geometry" />
        </mxCell>
        <mxCell id="oMLnvu2sPfIuHbvhSCbc-7" value="BAP_Shutdown" style="shape=callout;whiteSpace=wrap;html=1;perimeter=calloutPerimeter;fillColor=#fff2cc;position2=0;base=10;size=10;position=0;strokeColor=#d6b656;" parent="1" vertex="1">
          <mxGeometry x="760" y="425" width="120" height="30" as="geometry" />
        </mxCell>
        <mxCell id="oMLnvu2sPfIuHbvhSCbc-8" value="BAP_Start" style="shape=callout;whiteSpace=wrap;html=1;perimeter=calloutPerimeter;fillColor=#fff2cc;position2=0;base=10;size=10;position=0;strokeColor=#d6b656;" parent="1" vertex="1">
          <mxGeometry x="760" y="505" width="120" height="30" as="geometry" />
        </mxCell>
        <mxCell id="oMLnvu2sPfIuHbvhSCbc-10" value="Check if LSG running&lt;br&gt;BAP_GetLsgState" style="shape=callout;whiteSpace=wrap;html=1;perimeter=calloutPerimeter;fillColor=#fff2cc;position2=0;base=10;size=10;position=0;strokeColor=#d6b656;" parent="1" vertex="1">
          <mxGeometry x="760" y="540" width="120" height="40" as="geometry" />
        </mxCell>
        <mxCell id="oMLnvu2sPfIuHbvhSCbc-12" value="" style="html=1;verticalAlign=bottom;endArrow=none;entryX=0;entryY=0;labelBackgroundColor=none;fontFamily=Verdana;fontSize=12;edgeStyle=elbowEdgeStyle;elbow=vertical;endFill=0;startArrow=classicThin;startFill=1;dashed=1;exitX=1.1;exitY=0.964;exitDx=0;exitDy=0;exitPerimeter=0;" parent="1" edge="1" source="7baba1c4bc27f4b0-13">
          <mxGeometry relative="1" as="geometry">
            <mxPoint x="767.5" y="740" as="sourcePoint" />
            <mxPoint x="897.5" y="740.0000000000006" as="targetPoint" />
          </mxGeometry>
        </mxCell>
        <mxCell id="0U7owIf70crT0n3WG6go-21" value="Success" style="edgeLabel;html=1;align=center;verticalAlign=middle;resizable=0;points=[];" vertex="1" connectable="0" parent="oMLnvu2sPfIuHbvhSCbc-12">
          <mxGeometry x="-0.1298" y="-2" relative="1" as="geometry">
            <mxPoint x="202" y="-12" as="offset" />
          </mxGeometry>
        </mxCell>
        <mxCell id="oMLnvu2sPfIuHbvhSCbc-13" value="Test case execution" style="shape=callout;whiteSpace=wrap;html=1;perimeter=calloutPerimeter;fillColor=#fff2cc;position2=0;base=10;size=10;position=0;strokeColor=#d6b656;" parent="1" vertex="1">
          <mxGeometry x="916" y="710" width="120" height="30" as="geometry" />
        </mxCell>
        <mxCell id="oMLnvu2sPfIuHbvhSCbc-14" value="" style="html=1;verticalAlign=bottom;endArrow=none;labelBackgroundColor=none;fontFamily=Verdana;fontSize=12;edgeStyle=elbowEdgeStyle;elbow=vertical;endFill=0;startArrow=classicThin;startFill=1;dashed=1;jumpStyle=none;" parent="1" edge="1" target="7baba1c4bc27f4b0-5">
          <mxGeometry relative="1" as="geometry">
            <mxPoint x="455" y="580" as="sourcePoint" />
            <mxPoint x="585" y="599.0000000000006" as="targetPoint" />
            <Array as="points">
              <mxPoint x="670" y="580" />
            </Array>
          </mxGeometry>
        </mxCell>
        <mxCell id="0U7owIf70crT0n3WG6go-16" value="Success" style="edgeLabel;html=1;align=center;verticalAlign=middle;resizable=0;points=[];" vertex="1" connectable="0" parent="oMLnvu2sPfIuHbvhSCbc-14">
          <mxGeometry x="0.3707" y="-3" relative="1" as="geometry">
            <mxPoint y="-13" as="offset" />
          </mxGeometry>
        </mxCell>
        <mxCell id="oMLnvu2sPfIuHbvhSCbc-15" value="" style="html=1;verticalAlign=bottom;endArrow=none;labelBackgroundColor=none;fontFamily=Verdana;fontSize=12;edgeStyle=elbowEdgeStyle;elbow=vertical;endFill=0;startArrow=classicThin;startFill=1;dashed=1;entryX=1.033;entryY=0.939;entryDx=0;entryDy=0;entryPerimeter=0;" parent="1" source="7baba1c4bc27f4b0-10" edge="1" target="7baba1c4bc27f4b0-13">
          <mxGeometry relative="1" as="geometry">
            <mxPoint x="380" y="660" as="sourcePoint" />
            <mxPoint x="440" y="610" as="targetPoint" />
            <Array as="points">
              <mxPoint x="410" y="726" />
              <mxPoint x="380" y="720" />
            </Array>
          </mxGeometry>
        </mxCell>
        <mxCell id="oMLnvu2sPfIuHbvhSCbc-17" style="edgeStyle=orthogonalEdgeStyle;curved=1;orthogonalLoop=1;jettySize=auto;html=1;startArrow=none;startFill=0;endArrow=classicThin;endFill=1;exitX=0.189;exitY=0.976;exitDx=0;exitDy=0;exitPerimeter=0;" parent="1" source="7baba1c4bc27f4b0-10" edge="1">
          <mxGeometry relative="1" as="geometry">
            <mxPoint x="280" y="187.33331298828125" as="targetPoint" />
            <Array as="points">
              <mxPoint x="240" y="727" />
              <mxPoint x="240" y="187" />
            </Array>
          </mxGeometry>
        </mxCell>
        <mxCell id="oMLnvu2sPfIuHbvhSCbc-18" value="For each&lt;br&gt;&amp;nbsp;test case" style="edgeLabel;html=1;align=center;verticalAlign=middle;resizable=0;points=[];" parent="oMLnvu2sPfIuHbvhSCbc-17" vertex="1" connectable="0">
          <mxGeometry x="-0.0355" relative="1" as="geometry">
            <mxPoint x="-30" y="-25" as="offset" />
          </mxGeometry>
        </mxCell>
        <mxCell id="oMLnvu2sPfIuHbvhSCbc-19" value="" style="html=1;verticalAlign=bottom;endArrow=none;entryX=0;entryY=0;labelBackgroundColor=none;fontFamily=Verdana;fontSize=12;edgeStyle=elbowEdgeStyle;elbow=vertical;endFill=0;startArrow=classicThin;startFill=1;dashed=1;" parent="1" edge="1">
          <mxGeometry relative="1" as="geometry">
            <mxPoint x="160" y="739.17" as="sourcePoint" />
            <mxPoint x="290.5" y="739.1700000000004" as="targetPoint" />
          </mxGeometry>
        </mxCell>
        <mxCell id="0U7owIf70crT0n3WG6go-2" value="Request_FSG_Init()" style="shape=umlLifeline;perimeter=lifelinePerimeter;whiteSpace=wrap;html=1;container=1;collapsible=0;recursiveResize=0;outlineConnect=0;rounded=1;shadow=0;comic=0;labelBackgroundColor=none;strokeWidth=1;fontFamily=Verdana;fontSize=12;align=center;" vertex="1" parent="1">
          <mxGeometry x="535" y="80" width="130" height="680" as="geometry" />
        </mxCell>
        <mxCell id="0U7owIf70crT0n3WG6go-5" value="" style="html=1;points=[];perimeter=orthogonalPerimeter;rounded=0;shadow=0;comic=0;labelBackgroundColor=none;strokeWidth=1;fontFamily=Verdana;fontSize=12;align=center;" vertex="1" parent="0U7owIf70crT0n3WG6go-2">
          <mxGeometry x="60" y="180" width="10" height="40" as="geometry" />
        </mxCell>
        <mxCell id="0U7owIf70crT0n3WG6go-3" value="TestInit()" style="shape=umlLifeline;perimeter=lifelinePerimeter;whiteSpace=wrap;html=1;container=1;collapsible=0;recursiveResize=0;outlineConnect=0;rounded=1;shadow=0;comic=0;labelBackgroundColor=none;strokeWidth=1;fontFamily=Verdana;fontSize=12;align=center;" vertex="1" parent="1">
          <mxGeometry x="990" y="80" width="100" height="590" as="geometry" />
        </mxCell>
        <mxCell id="0U7owIf70crT0n3WG6go-17" value="" style="html=1;points=[];perimeter=orthogonalPerimeter;rounded=0;shadow=0;comic=0;labelBackgroundColor=none;strokeWidth=1;fontFamily=Verdana;fontSize=12;align=center;" vertex="1" parent="0U7owIf70crT0n3WG6go-3">
          <mxGeometry x="45" y="550" width="10" height="40" as="geometry" />
        </mxCell>
        <mxCell id="0U7owIf70crT0n3WG6go-6" value="" style="html=1;verticalAlign=bottom;endArrow=block;labelBackgroundColor=none;fontFamily=Verdana;fontSize=12;edgeStyle=elbowEdgeStyle;elbow=vertical;exitX=0.931;exitY=0.027;exitDx=0;exitDy=0;exitPerimeter=0;" edge="1" parent="1">
          <mxGeometry relative="1" as="geometry">
            <mxPoint x="459.3100000000002" y="259.44999999999993" as="sourcePoint" />
            <Array as="points">
              <mxPoint x="550" y="260" />
              <mxPoint x="550" y="270" />
              <mxPoint x="530" y="280" />
              <mxPoint x="470" y="230" />
            </Array>
            <mxPoint as="offset" />
            <mxPoint x="595.0000000000002" y="259.9999999999999" as="targetPoint" />
          </mxGeometry>
        </mxCell>
        <mxCell id="0U7owIf70crT0n3WG6go-9" value="Test case number" style="edgeLabel;html=1;align=center;verticalAlign=middle;resizable=0;points=[];" vertex="1" connectable="0" parent="0U7owIf70crT0n3WG6go-6">
          <mxGeometry x="0.2095" y="-3" relative="1" as="geometry">
            <mxPoint x="-16" y="-13" as="offset" />
          </mxGeometry>
        </mxCell>
        <mxCell id="0U7owIf70crT0n3WG6go-7" value="Send test case number to FSG" style="shape=callout;whiteSpace=wrap;html=1;perimeter=calloutPerimeter;fillColor=#fff2cc;position2=0;base=10;size=10;position=0;strokeColor=#d6b656;" vertex="1" parent="1">
          <mxGeometry x="615" y="260" width="120" height="40" as="geometry" />
        </mxCell>
        <mxCell id="0U7owIf70crT0n3WG6go-10" value="Clear send buffers" style="shape=callout;whiteSpace=wrap;html=1;perimeter=calloutPerimeter;fillColor=#fff2cc;position2=0;base=10;size=10;position=0;strokeColor=#d6b656;" vertex="1" parent="1">
          <mxGeometry x="760" y="320" width="120" height="30" as="geometry" />
        </mxCell>
        <mxCell id="0U7owIf70crT0n3WG6go-11" value="Clear receive buffers" style="shape=callout;whiteSpace=wrap;html=1;perimeter=calloutPerimeter;fillColor=#fff2cc;position2=0;base=10;size=10;position=0;strokeColor=#d6b656;" vertex="1" parent="1">
          <mxGeometry x="760" y="355" width="120" height="30" as="geometry" />
        </mxCell>
        <mxCell id="0U7owIf70crT0n3WG6go-12" value="Only on FSG&lt;br&gt;BAP_InitSendBuffer" style="shape=callout;whiteSpace=wrap;html=1;perimeter=calloutPerimeter;fillColor=#fff2cc;position2=0;base=10;size=10;position=0;strokeColor=#d6b656;" vertex="1" parent="1">
          <mxGeometry x="760" y="460" width="120" height="40" as="geometry" />
        </mxCell>
        <mxCell id="0U7owIf70crT0n3WG6go-15" style="edgeStyle=orthogonalEdgeStyle;rounded=0;orthogonalLoop=1;jettySize=auto;html=1;" edge="1" parent="1" source="7baba1c4bc27f4b0-13" target="7baba1c4bc27f4b0-5">
          <mxGeometry relative="1" as="geometry">
            <mxPoint x="510" y="405" as="targetPoint" />
            <Array as="points">
              <mxPoint x="630" y="320" />
              <mxPoint x="630" y="320" />
            </Array>
          </mxGeometry>
        </mxCell>
        <mxCell id="0U7owIf70crT0n3WG6go-19" value="Indication &lt;br&gt;callback pointers" style="html=1;verticalAlign=bottom;endArrow=block;labelBackgroundColor=none;fontFamily=Verdana;fontSize=12;edgeStyle=elbowEdgeStyle;elbow=vertical;entryX=0.5;entryY=0;entryDx=0;entryDy=0;entryPerimeter=0;" edge="1" parent="1" target="0U7owIf70crT0n3WG6go-17">
          <mxGeometry relative="1" as="geometry">
            <mxPoint x="907.5" y="630" as="sourcePoint" />
            <mxPoint x="1027.5" y="630" as="targetPoint" />
            <mxPoint as="offset" />
          </mxGeometry>
        </mxCell>
        <mxCell id="0U7owIf70crT0n3WG6go-20" value="" style="html=1;verticalAlign=bottom;endArrow=none;labelBackgroundColor=none;fontFamily=Verdana;fontSize=12;edgeStyle=elbowEdgeStyle;elbow=vertical;endFill=0;startArrow=classicThin;startFill=1;dashed=1;entryX=0.167;entryY=0.967;entryDx=0;entryDy=0;entryPerimeter=0;" edge="1" parent="1" target="0U7owIf70crT0n3WG6go-17">
          <mxGeometry relative="1" as="geometry">
            <mxPoint x="910" y="669" as="sourcePoint" />
            <mxPoint x="1030" y="669" as="targetPoint" />
          </mxGeometry>
        </mxCell>
        <mxCell id="0U7owIf70crT0n3WG6go-22" value="" style="html=1;verticalAlign=bottom;endArrow=block;labelBackgroundColor=none;fontFamily=Verdana;fontSize=12;edgeStyle=elbowEdgeStyle;elbow=vertical;" edge="1" parent="1" source="7baba1c4bc27f4b0-9" target="7baba1c4bc27f4b0-5">
          <mxGeometry relative="1" as="geometry">
            <mxPoint x="160" y="150" as="sourcePoint" />
            <mxPoint x="670" y="150" as="targetPoint" />
            <Array as="points">
              <mxPoint x="210" y="150" />
              <mxPoint x="285" y="219.5" />
            </Array>
          </mxGeometry>
        </mxCell>
        <mxCell id="0U7owIf70crT0n3WG6go-25" value="First execution&lt;br&gt;(same as below)" style="shape=callout;whiteSpace=wrap;html=1;perimeter=calloutPerimeter;fillColor=#fff2cc;position2=0;base=10;size=10;position=0;strokeColor=#d6b656;" vertex="1" parent="1">
          <mxGeometry x="760" y="130" width="120" height="40" as="geometry" />
        </mxCell>
        <mxCell id="0U7owIf70crT0n3WG6go-26" value="" style="html=1;verticalAlign=bottom;endArrow=none;entryX=0.093;entryY=0.977;labelBackgroundColor=none;fontFamily=Verdana;fontSize=12;edgeStyle=elbowEdgeStyle;elbow=vertical;endFill=0;startArrow=classicThin;startFill=1;dashed=1;exitX=1.233;exitY=0.047;exitDx=0;exitDy=0;exitPerimeter=0;entryDx=0;entryDy=0;entryPerimeter=0;" edge="1" parent="1" source="7baba1c4bc27f4b0-9" target="0U7owIf70crT0n3WG6go-24">
          <mxGeometry relative="1" as="geometry">
            <mxPoint x="310" y="169.0000000000001" as="sourcePoint" />
            <mxPoint x="751.5" y="169.16000000000042" as="targetPoint" />
          </mxGeometry>
        </mxCell>
      </root>
    </mxGraphModel>
  </diagram>
</mxfile>
